<svg xmlns="http://www.w3.org/2000/svg" width="20" height="48" viewBox="0 0 20 48"><svg xmlns:xlink="http://www.w3.org/1999/xlink" height="19" viewBox="0 0 8.672 18.944" width="9" version="1"><path d="M6.275 3.356h2.398V0H5.795C2.655.18 1.54 2.387 1.948 6.114H0v3.518h1.96v9.312h3.836V9.632h2.857V6.114H5.787c-.022-1.045-.037-2.405.488-2.758z"/></svg><svg xmlns:xlink="http://www.w3.org/1999/xlink" height="15" viewBox="0 0 17.5 14.663" width="18" version="1" y="19"><path clip-rule="evenodd" d="M11.283.153c1.736-.484 3.074.264 3.685 1.15.694-.225 1.372-.47 2.072-.69-.004.84-.538 1.478-.883 1.728.704.166 1.343-.48 1.343-.48-.175.977-1.035 1.746-1.61 1.977-.24 6.592-3.273 10.956-10.383 10.823h-.46c-.422 0-4.29-.45-5.047-1.843 2.34.192 4.01-.412 4.835-1.15-.99-.293-2.76-.464-3.07-2.88.362.104.583.222 1.228.116C1.757 8.067.385 7.366.46 5.218c.295.32 1.1.523 1.382.46C1.117 5.445-.188 2.4.922.844c1.872 1.812 3.847 3.52 7.368 3.685.216-2.24 1.17-3.74 2.993-4.375z" fill-rule="evenodd"/></svg><svg xmlns:xlink="http://www.w3.org/1999/xlink" height="14" viewBox="0 0 19.979 14.015" width="20" version="1" y="34"><path d="M17.145 0H2.835C1.275 0 0 1.275 0 2.835v8.345c0 1.56 1.275 2.835 2.835 2.835h14.31c1.56 0 2.835-1.275 2.835-2.835V2.835C19.98 1.275 18.704 0 17.145 0zM7.035 10.392v-6.77l6.77 3.385-6.77 3.385z"/></svg></svg>