<?xml version="1.0"?>
<svg version="1.1" xmlns="http://www.w3.org/2000/svg" xmlns:xlink="http://www.w3.org/1999/xlink" width="255.917" height="28.91">
    <desc iVinci="yes" version="4.5" gridStep="20" showGrid="no" snapToGrid="no" codePlatform="0"/>
    <g id="Layer1" opacity="1">
        <g id="Shape1">
            <desc shapeID="1" type="0" basicInfo-basicType="0" basicInfo-roundedRectRadius="12" basicInfo-polygonSides="6" basicInfo-starPoints="5" bounding="rect(-11.7318,-10.5762,23.4636,21.1524)" text="" font-familyName="" font-pixelSize="20" font-bold="0" font-underline="0" font-alignment="1" strokeStyle="0" markerStart="0" markerEnd="0" shadowEnabled="0" shadowOffsetX="0" shadowOffsetY="2" shadowBlur="4" shadowOpacity="160" blurEnabled="0" blurRadius="4" transform="matrix(1,0,0,1,53.3882,10.4448)" pers-center="0,0" pers-size="0,0" pers-start="0,0" pers-end="0,0" locked="0" mesh="" flag=""/>
            <path id="shapePath1" d="M63.999,14.3226 L63.797,14.5526 C62.444,16.0206 60.774,16.7406 59.276,16.7696 L62.098,11.9036 C63.912,8.76556 62.242,5.79956 59.42,5.79956 C57.116,5.79956 55.331,6.72056 53.604,9.71556 L52.136,12.2776 L50.909,14.3756 L50.755,14.5526 C48.596,17.0576 46.494,19.0436 45.169,19.0436 C44.507,19.0436 44.132,18.5826 44.824,17.4026 L51.245,6.20156 L53.692,6.20156 L54.556,4.76156 L52.08,4.76156 L54.902,-0.131439 L51.907,-0.131439 L49.085,4.76356 L46.378,4.76356 L45.514,6.20356 L48.249,6.20356 L42.231,16.6266 C40.964,18.8436 41.857,20.8886 44.275,20.8886 C46.014,20.8886 47.937,19.5796 49.786,17.8046 C49.781,21.6206 55.084,22.3656 58.325,18.2676 L58.987,18.2676 C60.772,18.2676 63.594,17.1736 65.12,15.3596 C64.92,14.9556 64.402,14.4956 63.999,14.3226 M57.607,14.5246 L57.463,14.5246 C56.484,14.5246 55.707,15.3306 55.707,16.3106 C55.707,16.6836 55.822,17.0296 55.995,17.3186 L55.966,17.3756 C54.555,19.7946 51.129,19.3336 52.914,16.2246 L55.188,12.2796 L56.628,9.83256 C58.73,6.26256 61.609,7.67256 59.795,10.7826 L57.607,14.5246 Z" style="stroke:none;fill-rule:nonzero;fill:#766357;fill-opacity:1;"/>
        </g>
        <g id="Shape2">
            <desc shapeID="2" type="0" basicInfo-basicType="0" basicInfo-roundedRectRadius="12" basicInfo-polygonSides="6" basicInfo-starPoints="5" bounding="rect(-17.8488,-10.5105,35.6975,21.021)" text="" font-familyName="" font-pixelSize="20" font-bold="0" font-underline="0" font-alignment="1" strokeStyle="0" markerStart="0" markerEnd="0" shadowEnabled="0" shadowOffsetX="0" shadowOffsetY="2" shadowBlur="4" shadowOpacity="160" blurEnabled="0" blurRadius="4" transform="matrix(1,0,0,1,88.7272,10.5105)" pers-center="0,0" pers-size="0,0" pers-start="0,0" pers-end="0,0" locked="0" mesh="" flag=""/>
            <path id="shapePath2" d="M105.455,14.454 L105.253,14.684 C103.093,17.189 100.329,19.175 98.228,19.175 C96.385,19.175 95.291,18.024 96.673,15.605 L96.961,15.086 C98.89,15.892 102.518,15.518 104.764,11.631 L105.196,10.882 C106.808,8.118 105.254,6.045 102.806,6.045 C100.387,6.045 98.458,7.312 97.191,9.5 L94.285,14.485 L94.112,14.683 C91.952,17.188 89.851,19.174 88.526,19.174 C87.864,19.174 87.489,18.713 88.18,17.533 L92.5,9.962 C93.795,7.687 92.558,6.046 90.887,6.046 C89.592,6.046 88.209,6.766 86.712,8.32 L91.492,0 L88.497,0 L80.143,14.492 L79.975,14.684 C77.816,17.189 75.714,19.175 74.389,19.175 C73.727,19.175 73.352,18.714 74.044,17.534 L80.465,6.333 L82.912,6.333 L83.776,4.893 L81.3,4.893 L84.123,0 L81.128,0 L78.306,4.895 L75.6,4.895 L74.736,6.335 L77.471,6.335 L71.453,16.758 C70.186,18.975 71.079,21.02 73.497,21.02 C74.71,21.02 76.014,20.381 77.319,19.393 L76.548,20.731 L79.571,20.731 L84.12,12.814 C88.727,7.026 90.771,7.775 89.475,9.992 L85.588,16.759 C84.321,18.976 85.214,21.021 87.632,21.021 C89.414,21.021 91.389,19.646 93.279,17.804 C93.423,19.669 94.932,21.021 97.333,21.021 C100.73,21.021 104.099,18.372 106.576,15.492 C106.376,15.087 105.858,14.627 105.455,14.454 M99.754,10.25 C101.482,7.285 104.534,7.774 102.749,10.884 L102.317,11.633 C100.878,14.08 98.948,14.023 97.825,13.62 L99.754,10.25 Z" style="stroke:none;fill-rule:nonzero;fill:#766357;fill-opacity:1;"/>
        </g>
        <g id="Shape3">
            <desc shapeID="3" type="0" basicInfo-basicType="0" basicInfo-roundedRectRadius="12" basicInfo-polygonSides="6" basicInfo-starPoints="5" bounding="rect(-52.671,-13.0593,105.342,26.1187)" text="" font-familyName="" font-pixelSize="20" font-bold="0" font-underline="0" font-alignment="1" strokeStyle="0" markerStart="0" markerEnd="0" shadowEnabled="0" shadowOffsetX="0" shadowOffsetY="2" shadowBlur="4" shadowOpacity="160" blurEnabled="0" blurRadius="4" transform="matrix(1,0,0,1,163.077,15.8483)" pers-center="0,0" pers-size="0,0" pers-start="0,0" pers-end="0,0" locked="0" mesh="" flag=""/>
            <path id="shapePath3" d="M214.624,14.454 L214.423,14.684 C213.328,15.979 212.004,17.131 210.823,17.937 C211.773,15.087 211.572,10.71 213.415,6.881 L211.169,5.672 C209.931,7.371 207.225,11.287 204.518,14.454 C204.518,14.454 204.519,14.455 204.519,14.455 L204.318,14.684 C202.159,17.189 200.057,19.175 198.732,19.175 C198.07,19.175 197.696,18.714 198.387,17.534 L204.779,6.333 L201.785,6.333 L196.458,15.633 C194.184,17.705 192.427,18.858 191.852,18.598 C191.103,18.282 191.852,17.159 192.226,16.526 L198.071,6.333 L195.077,6.333 L190.383,14.457 L190.185,14.684 C188.831,16.152 187.162,16.872 185.664,16.901 L188.485,12.035 C190.299,8.897 188.63,5.931 185.807,5.931 C183.504,5.931 181.719,6.852 179.992,9.847 L178.523,12.409 L177.297,14.506 L177.142,14.684 C174.983,17.189 172.218,19.175 170.117,19.175 C168.274,19.175 167.179,18.024 168.562,15.605 L168.85,15.086 C170.779,15.892 174.407,15.518 176.653,11.631 L177.085,10.882 C178.697,8.118 177.143,6.045 174.695,6.045 C172.276,6.045 170.347,7.312 169.08,9.5 L166.176,14.484 L166.001,14.683 C163.525,17.534 161.395,19.375 159.033,20.383 L165.742,8.924 L163.985,8.924 C163.985,7.686 162.718,6.045 160.847,6.045 C159.235,6.045 156.989,7.312 155.721,9.5 L152.85,14.457 C152.848,14.456 152.845,14.454 152.843,14.453 L152.642,14.683 C150.483,17.188 148.38,19.174 147.056,19.174 C146.394,19.174 146.02,18.713 146.71,17.533 L149.705,12.292 C150.741,10.478 150.252,9.413 149.272,8.232 L147.602,6.216 C147.17,5.669 147.17,5.064 147.775,4.488 L146.22,2.789 C144.521,4.315 144.377,6.014 145.443,7.396 L145.702,7.742 C144.378,9.614 142.593,12.147 140.635,14.451 C140.635,14.451 140.636,14.452 140.636,14.452 L140.436,14.681 C139.082,16.149 137.413,16.869 135.915,16.898 L138.736,12.032 C140.55,8.894 138.881,5.928 136.058,5.928 C133.755,5.928 131.97,6.849 130.243,9.844 L128.774,12.406 L127.546,14.507 L127.394,14.681 C124.917,17.532 122.787,19.373 120.426,20.381 L127.135,8.922 L125.379,8.922 C125.379,7.684 124.112,6.043 122.24,6.043 C120.628,6.043 118.382,7.31 117.115,9.498 L112.911,16.754 C111.644,18.971 112.537,21.016 114.955,21.016 C115.79,21.016 116.798,20.641 117.806,20.008 L116.971,21.418 C112.94,22.656 110.406,24.297 110.406,26.543 C110.406,29.423 114.811,30.027 116.971,26.342 L119.246,22.397 C121.642,21.65 123.989,20.241 126.426,17.915 C126.404,21.747 131.719,22.5 134.965,18.395 L135.627,18.395 C137.412,18.395 140.234,17.301 141.76,15.487 C141.76,15.487 141.759,15.486 141.759,15.486 C143.198,13.816 144.321,12.319 146.71,9.067 L147.113,9.556 C147.487,10.046 147.632,10.65 147.286,11.255 L144.119,16.755 C142.851,18.972 143.744,21.017 146.163,21.017 C147.681,21.017 149.339,20.02 150.965,18.587 C150.916,19.978 151.844,21.017 153.562,21.017 C154.397,21.017 155.405,20.642 156.413,20.009 L155.578,21.419 C151.547,22.657 149.014,24.298 149.014,26.544 C149.014,29.424 153.419,30.028 155.578,26.343 L157.852,22.398 C160.292,21.637 162.682,20.184 165.167,17.781 C165.301,19.656 166.814,21.017 169.224,21.017 C171.662,21.017 174.083,19.65 176.172,17.816 C176.054,21.736 181.438,22.537 184.713,18.396 L185.375,18.396 C186.313,18.396 187.533,18.088 188.704,17.54 C187.899,19.621 188.641,21.018 190.354,21.018 C191.995,21.018 193.837,19.52 195.277,18.138 C194.989,19.75 195.939,21.018 197.839,21.018 C200.316,21.018 203.166,18.369 205.643,15.489 C205.643,15.489 205.642,15.488 205.642,15.488 C207.34,13.53 208.837,11.429 209.903,10.019 C208.722,13.128 209.355,18.714 206.505,18.714 C205.497,18.714 205.095,17.62 205.095,17.62 L203.223,18.599 C203.223,18.599 203.77,21.019 206.505,21.019 C206.793,21.019 207.053,20.99 207.34,20.96 C207.369,20.96 207.398,20.932 207.427,20.932 C210.479,20.529 213.502,18.111 215.748,15.49 C215.574,15.03 215.055,14.569 214.624,14.454 M171.641,10.25 C173.369,7.285 176.42,7.774 174.635,10.884 L174.203,11.633 C172.763,14.08 170.834,14.023 169.711,13.62 L171.641,10.25 M114.465,25.855 C113.831,26.978 112.824,26.806 112.824,26 C112.824,25.223 113.544,24.33 115.818,23.438 L114.465,25.855 M115.847,19.176 C115.185,19.176 114.81,18.715 115.502,17.535 L119.677,10.25 C121.289,7.457 124.486,8.177 123.017,10.884 L120.743,14.857 C118.928,17.766 117.114,19.176 115.847,19.176 M134.244,14.656 L134.099,14.656 C133.12,14.656 132.343,15.462 132.343,16.442 C132.343,16.815 132.458,17.161 132.631,17.45 L132.602,17.507 C131.192,19.926 127.765,19.465 129.55,16.356 L131.824,12.411 L133.263,9.964 C135.366,6.394 138.244,7.804 136.431,10.914 L134.244,14.656 M153.071,25.855 C152.437,26.978 151.429,26.806 151.429,26 C151.429,25.223 152.149,24.33 154.424,23.438 L153.071,25.855 M154.453,19.176 C153.791,19.176 153.417,18.715 154.107,17.535 L158.283,10.25 C159.895,7.457 163.091,8.177 161.623,10.884 L159.348,14.857 C157.534,17.766 155.719,19.176 154.453,19.176 M183.992,14.656 L183.847,14.656 C182.868,14.656 182.091,15.462 182.091,16.442 C182.091,16.815 182.206,17.161 182.379,17.45 L182.35,17.507 C180.94,19.926 177.513,19.465 179.298,16.356 L181.572,12.411 L183.011,9.964 C185.114,6.394 187.992,7.804 186.179,10.914 L183.992,14.656 Z" style="stroke:none;fill-rule:nonzero;fill:#766357;fill-opacity:1;"/>
        </g>
        <g id="Shape4">
            <desc shapeID="4" type="0" basicInfo-basicType="0" basicInfo-roundedRectRadius="12" basicInfo-polygonSides="6" basicInfo-starPoints="5" bounding="rect(-14.4585,-0.979,28.917,1.958)" text="" font-familyName="" font-pixelSize="20" font-bold="0" font-underline="0" font-alignment="1" strokeStyle="0" markerStart="0" markerEnd="0" shadowEnabled="0" shadowOffsetX="0" shadowOffsetY="2" shadowBlur="4" shadowOpacity="160" blurEnabled="0" blurRadius="4" transform="matrix(1,0,0,1,14.4585,12.254)" pers-center="0,0" pers-size="0,0" pers-start="0,0" pers-end="0,0" locked="0" mesh="" flag=""/>
            <path id="shapePath4" d="M0,11.275 L28.917,11.275 L28.917,13.233 L0,13.233 L0,11.275 Z" style="stroke:none;fill-rule:evenodd;fill:#766357;fill-opacity:1;"/>
        </g>
        <g id="Shape5">
            <desc shapeID="5" type="0" basicInfo-basicType="0" basicInfo-roundedRectRadius="12" basicInfo-polygonSides="6" basicInfo-starPoints="5" bounding="rect(-14.459,-0.979,28.918,1.958)" text="" font-familyName="" font-pixelSize="20" font-bold="0" font-underline="0" font-alignment="1" strokeStyle="0" markerStart="0" markerEnd="0" shadowEnabled="0" shadowOffsetX="0" shadowOffsetY="2" shadowBlur="4" shadowOpacity="160" blurEnabled="0" blurRadius="4" transform="matrix(1,0,0,1,241.459,12.254)" pers-center="0,0" pers-size="0,0" pers-start="0,0" pers-end="0,0" locked="0" mesh="" flag=""/>
            <path id="shapePath5" d="M227,11.275 L255.918,11.275 L255.918,13.233 L227,13.233 L227,11.275 Z" style="stroke:none;fill-rule:evenodd;fill:#766357;fill-opacity:1;"/>
        </g>
    </g>
</svg>
