<?xml version="1.0"?>
<svg version="1.1" xmlns="http://www.w3.org/2000/svg" xmlns:xlink="http://www.w3.org/1999/xlink" width="187.663" height="44.918">
    <desc iVinci="yes" version="4.5" gridStep="20" showGrid="no" snapToGrid="no" codePlatform="0"/>
    <g id="Layer1" opacity="1">
        <g id="Shape1">
            <desc shapeID="1" type="0" basicInfo-basicType="0" basicInfo-roundedRectRadius="12" basicInfo-polygonSides="6" basicInfo-starPoints="5" bounding="rect(-17.71,-22.459,35.42,44.918)" text="" font-familyName="" font-pixelSize="20" font-bold="0" font-underline="0" font-alignment="1" strokeStyle="0" markerStart="0" markerEnd="0" shadowEnabled="0" shadowOffsetX="0" shadowOffsetY="2" shadowBlur="4" shadowOpacity="160" blurEnabled="0" blurRadius="4" transform="matrix(1,0,0,1,17.71,22.459)" pers-center="0,0" pers-size="0,0" pers-start="0,0" pers-end="0,0" locked="0" mesh="" flag=""/>
            <path id="shapePath1" d="M27.712,0 L35.42,0 L34.21,44.918 L19.685,44.918 L17.71,26.373 L15.735,44.918 L1.146,44.918 L0,0 L7.645,0 L8.282,37.152 L9.11,37.152 L13.888,0 L21.469,0 L26.374,37.152 L27.139,37.152 L27.712,0 Z" style="stroke:none;fill-rule:nonzero;fill:#81b3d2;fill-opacity:1;"/>
        </g>
        <g id="Shape2">
            <desc shapeID="2" type="0" basicInfo-basicType="0" basicInfo-roundedRectRadius="12" basicInfo-polygonSides="6" basicInfo-starPoints="5" bounding="rect(-10.448,-22.459,20.896,44.918)" text="" font-familyName="" font-pixelSize="20" font-bold="0" font-underline="0" font-alignment="1" strokeStyle="0" markerStart="0" markerEnd="0" shadowEnabled="0" shadowOffsetX="0" shadowOffsetY="2" shadowBlur="4" shadowOpacity="160" blurEnabled="0" blurRadius="4" transform="matrix(1,0,0,1,49.115,22.459)" pers-center="0,0" pers-size="0,0" pers-start="0,0" pers-end="0,0" locked="0" mesh="" flag=""/>
            <path id="shapePath2" d="M59.563,37.152 L59.563,44.918 L38.667,44.918 L38.667,0 L59.563,0 L59.563,7.7 L46.312,7.7 L46.312,18.544 L56.887,18.544 L56.887,26.244 L46.312,26.244 L46.312,37.152 L59.563,37.152 Z" style="stroke:none;fill-rule:nonzero;fill:#81b3d2;fill-opacity:1;"/>
        </g>
        <g id="Shape3">
            <desc shapeID="3" type="0" basicInfo-basicType="0" basicInfo-roundedRectRadius="12" basicInfo-polygonSides="6" basicInfo-starPoints="5" bounding="rect(-9.1415,-22.459,18.283,44.918)" text="" font-familyName="" font-pixelSize="20" font-bold="0" font-underline="0" font-alignment="1" strokeStyle="0" markerStart="0" markerEnd="0" shadowEnabled="0" shadowOffsetX="0" shadowOffsetY="2" shadowBlur="4" shadowOpacity="160" blurEnabled="0" blurRadius="4" transform="matrix(1,0,0,1,71.7605,22.459)" pers-center="0,0" pers-size="0,0" pers-start="0,0" pers-end="0,0" locked="0" mesh="" flag=""/>
            <path id="shapePath3" d="M80.902,37.152 L80.902,44.918 L62.619,44.918 L62.619,0 L70.264,0 L70.264,37.152 L80.902,37.152 Z" style="stroke:none;fill-rule:nonzero;fill:#81b3d2;fill-opacity:1;"/>
        </g>
        <g id="Shape4">
            <desc shapeID="4" type="0" basicInfo-basicType="0" basicInfo-roundedRectRadius="12" basicInfo-polygonSides="6" basicInfo-starPoints="5" bounding="rect(-10.448,-22.459,20.896,44.918)" text="" font-familyName="" font-pixelSize="20" font-bold="0" font-underline="0" font-alignment="1" strokeStyle="0" markerStart="0" markerEnd="0" shadowEnabled="0" shadowOffsetX="0" shadowOffsetY="2" shadowBlur="4" shadowOpacity="160" blurEnabled="0" blurRadius="4" transform="matrix(1,0,0,1,94.406,22.459)" pers-center="0,0" pers-size="0,0" pers-start="0,0" pers-end="0,0" locked="0" mesh="" flag=""/>
            <path id="shapePath4" d="M97.146,28.362 L104.854,26.565 L104.854,40.169 C104.854,42.736 102.688,44.918 100.14,44.918 L88.672,44.918 C86.06,44.918 83.958,42.736 83.958,40.169 L83.958,4.749 C83.958,2.117 86.061,0 88.672,0 L100.139,0 C102.687,0 104.853,2.117 104.853,4.749 L104.853,13.861 L97.145,15.657 L97.145,7.7 L91.602,7.7 L91.602,37.152 L97.145,37.152 L97.145,28.362 L97.146,28.362 Z" style="stroke:none;fill-rule:nonzero;fill:#81b3d2;fill-opacity:1;"/>
        </g>
        <g id="Shape5">
            <desc shapeID="5" type="0" basicInfo-basicType="0" basicInfo-roundedRectRadius="12" basicInfo-polygonSides="6" basicInfo-starPoints="5" bounding="rect(-10.448,-22.459,20.896,44.918)" text="" font-familyName="" font-pixelSize="20" font-bold="0" font-underline="0" font-alignment="1" strokeStyle="0" markerStart="0" markerEnd="0" shadowEnabled="0" shadowOffsetX="0" shadowOffsetY="2" shadowBlur="4" shadowOpacity="160" blurEnabled="0" blurRadius="4" transform="matrix(1,0,0,1,119.885,22.459)" pers-center="0,0" pers-size="0,0" pers-start="0,0" pers-end="0,0" locked="0" mesh="" flag=""/>
            <path id="shapePath5" d="M125.619,0 C128.167,0 130.333,2.117 130.333,4.749 L130.333,40.169 C130.333,42.736 128.167,44.918 125.619,44.918 L114.151,44.918 C111.54,44.918 109.437,42.736 109.437,40.169 L109.437,4.749 C109.437,2.118 111.54,0 114.151,0 L125.619,0 M122.625,7.7 L117.082,7.7 L117.082,37.152 L122.625,37.152 L122.625,7.7 Z" style="stroke:none;fill-rule:nonzero;fill:#81b3d2;fill-opacity:1;"/>
        </g>
        <g id="Shape6">
            <desc shapeID="6" type="0" basicInfo-basicType="0" basicInfo-roundedRectRadius="12" basicInfo-polygonSides="6" basicInfo-starPoints="5" bounding="rect(-14.398,-22.459,28.796,44.918)" text="" font-familyName="" font-pixelSize="20" font-bold="0" font-underline="0" font-alignment="1" strokeStyle="0" markerStart="0" markerEnd="0" shadowEnabled="0" shadowOffsetX="0" shadowOffsetY="2" shadowBlur="4" shadowOpacity="160" blurEnabled="0" blurRadius="4" transform="matrix(1,0,0,1,148.549,22.459)" pers-center="0,0" pers-size="0,0" pers-start="0,0" pers-end="0,0" locked="0" mesh="" flag=""/>
            <path id="shapePath6" d="M155.366,0 L162.947,0 L162.947,44.918 L155.302,44.918 L155.302,22.844 L152.244,34.266 L144.79,34.266 L141.796,22.844 L141.796,44.918 L134.151,44.918 L134.151,0 L141.732,0 L148.548,21.688 L155.366,0 Z" style="stroke:none;fill-rule:nonzero;fill:#81b3d2;fill-opacity:1;"/>
        </g>
        <g id="Shape7">
            <desc shapeID="7" type="0" basicInfo-basicType="0" basicInfo-roundedRectRadius="12" basicInfo-polygonSides="6" basicInfo-starPoints="5" bounding="rect(-10.448,-22.459,20.896,44.918)" text="" font-familyName="" font-pixelSize="20" font-bold="0" font-underline="0" font-alignment="1" strokeStyle="0" markerStart="0" markerEnd="0" shadowEnabled="0" shadowOffsetX="0" shadowOffsetY="2" shadowBlur="4" shadowOpacity="160" blurEnabled="0" blurRadius="4" transform="matrix(1,0,0,1,177.215,22.459)" pers-center="0,0" pers-size="0,0" pers-start="0,0" pers-end="0,0" locked="0" mesh="" flag=""/>
            <path id="shapePath7" d="M187.663,37.152 L187.663,44.918 L166.767,44.918 L166.767,0 L187.663,0 L187.663,7.7 L174.412,7.7 L174.412,18.544 L184.987,18.544 L184.987,26.244 L174.412,26.244 L174.412,37.152 L187.663,37.152 Z" style="stroke:none;fill-rule:nonzero;fill:#81b3d2;fill-opacity:1;"/>
        </g>
        <g id="Shape8">
            <desc shapeID="8" type="0" basicInfo-basicType="2" basicInfo-roundedRectRadius="12" basicInfo-polygonSides="6" basicInfo-starPoints="5" bounding="rect(-0.5,-23.5,1,47)" text="" font-familyName="Helvetica" font-pixelSize="20" font-bold="0" font-underline="0" font-alignment="1" strokeStyle="0" markerStart="0" markerEnd="0" shadowEnabled="0" shadowOffsetX="0" shadowOffsetY="2" shadowBlur="4" shadowOpacity="160" blurEnabled="0" blurRadius="4" transform="matrix(1,0,0,1,204,23)" pers-center="0,0" pers-size="0,0" pers-start="0,0" pers-end="0,0" locked="0" mesh="" flag=""/>
            <path id="shapePath8" d="M203.5,11.5 C203.5,4.87258 203.724,-0.5 204,-0.5 C204.276,-0.5 204.5,4.87258 204.5,11.5 L204.5,34.5 C204.5,41.1274 204.276,46.5 204,46.5 C203.724,46.5 203.5,41.1274 203.5,34.5 L203.5,11.5 Z" style="stroke:none;fill-rule:evenodd;fill:#81b3d2;fill-opacity:1;"/>
        </g>
    </g>
</svg>
