<?xml version="1.0"?>
<svg version="1.1" xmlns="http://www.w3.org/2000/svg" xmlns:xlink="http://www.w3.org/1999/xlink" width="459.755" height="79.804">
    <desc iVinci="yes" version="4.5" gridStep="20" showGrid="no" snapToGrid="no" codePlatform="0"/>
    <g id="Layer1" opacity="1">
        <g id="Shape1">
            <desc shapeID="1" type="0" basicInfo-basicType="0" basicInfo-roundedRectRadius="12" basicInfo-polygonSides="6" basicInfo-starPoints="5" bounding="rect(-27.6435,-39.406,55.287,78.812)" text="" font-familyName="" font-pixelSize="20" font-bold="0" font-underline="0" font-alignment="1" strokeStyle="0" markerStart="0" markerEnd="0" shadowEnabled="0" shadowOffsetX="0" shadowOffsetY="2" shadowBlur="4" shadowOpacity="160" blurEnabled="0" blurRadius="4" transform="matrix(1,0,0,1,27.6445,39.9)" pers-center="0,0" pers-size="0,0" pers-start="0,0" pers-end="0,0" locked="0" mesh="" flag=""/>
            <path id="shapePath1" d="M44.468,21.737 C40.895,18.759 36.329,16.774 31.565,16.774 C27.992,16.774 23.227,18.858 23.227,23.027 C23.227,27.395 28.488,29.082 31.863,30.173 L36.826,31.662 C47.248,34.739 55.288,39.999 55.288,52.109 C55.288,59.554 53.501,67.197 47.546,72.259 C41.69,77.222 33.848,79.306 26.305,79.306 C16.875,79.306 7.644,76.13 0.000999451,70.769 L8.339,55.087 C13.203,59.355 18.96,62.829 25.61,62.829 C30.176,62.829 35.04,60.546 35.04,55.285 C35.04,49.825 27.397,47.94 23.228,46.749 C11.02,43.274 2.979,40.099 2.979,25.606 C2.979,10.419 13.798,0.493999 28.786,0.493999 C36.329,0.493999 45.561,2.876 52.211,6.648 L44.468,21.737 Z" style="stroke:none;fill-rule:nonzero;fill:#ffffff;fill-opacity:1;"/>
        </g>
        <g id="Shape2">
            <desc shapeID="2" type="0" basicInfo-basicType="0" basicInfo-roundedRectRadius="12" basicInfo-polygonSides="6" basicInfo-starPoints="5" bounding="rect(-21.291,-37.4205,42.582,74.841)" text="" font-familyName="" font-pixelSize="20" font-bold="0" font-underline="0" font-alignment="1" strokeStyle="0" markerStart="0" markerEnd="0" shadowEnabled="0" shadowOffsetX="0" shadowOffsetY="2" shadowBlur="4" shadowOpacity="160" blurEnabled="0" blurRadius="4" transform="matrix(1,0,0,1,93.669,39.9015)" pers-center="0,0" pers-size="0,0" pers-start="0,0" pers-end="0,0" locked="0" mesh="" flag=""/>
            <path id="shapePath2" d="M91.833,18.958 L91.833,31.464 L113.769,31.464 L113.769,47.942 L91.833,47.942 L91.833,60.844 L114.96,60.844 L114.96,77.322 L72.378,77.322 L72.378,2.481 L114.96,2.481 L114.96,18.958 L91.833,18.958 Z" style="stroke:none;fill-rule:nonzero;fill:#ffffff;fill-opacity:1;"/>
        </g>
        <g id="Shape3">
            <desc shapeID="3" type="0" basicInfo-basicType="0" basicInfo-roundedRectRadius="12" basicInfo-polygonSides="6" basicInfo-starPoints="5" bounding="rect(-32.805,-37.42,65.61,74.84)" text="" font-familyName="" font-pixelSize="20" font-bold="0" font-underline="0" font-alignment="1" strokeStyle="0" markerStart="0" markerEnd="0" shadowEnabled="0" shadowOffsetX="0" shadowOffsetY="2" shadowBlur="4" shadowOpacity="160" blurEnabled="0" blurRadius="4" transform="matrix(1,0,0,1,162.223,39.901)" pers-center="0,0" pers-size="0,0" pers-start="0,0" pers-end="0,0" locked="0" mesh="" flag=""/>
            <path id="shapePath3" d="M129.418,2.481 L157.012,2.481 C177.856,2.481 195.028,18.858 195.028,39.901 C195.028,60.943 177.757,77.321 157.012,77.321 L129.418,77.321 L129.418,2.481 M148.873,60.845 L153.24,60.845 C164.853,60.845 174.78,54.493 174.78,39.902 C174.78,26.502 165.946,18.959 153.439,18.959 L148.873,18.959 L148.873,60.845 Z" style="stroke:none;fill-rule:nonzero;fill:#ffffff;fill-opacity:1;"/>
        </g>
        <g id="Shape4">
            <desc shapeID="4" type="0" basicInfo-basicType="0" basicInfo-roundedRectRadius="12" basicInfo-polygonSides="6" basicInfo-starPoints="5" bounding="rect(-41.391,-39.902,82.782,79.804)" text="" font-familyName="" font-pixelSize="20" font-bold="0" font-underline="0" font-alignment="1" strokeStyle="0" markerStart="0" markerEnd="0" shadowEnabled="0" shadowOffsetX="0" shadowOffsetY="2" shadowBlur="4" shadowOpacity="160" blurEnabled="0" blurRadius="4" transform="matrix(1,0,0,1,245.482,39.902)" pers-center="0,0" pers-size="0,0" pers-start="0,0" pers-end="0,0" locked="0" mesh="" flag=""/>
            <path id="shapePath4" d="M286.873,38.512 C286.873,62.731 269.503,79.804 245.482,79.804 C221.461,79.804 204.091,62.732 204.091,38.512 C204.091,15.881 223.943,0 245.482,0 C267.021,0 286.873,15.881 286.873,38.512 M224.34,38.611 C224.34,51.514 233.869,60.944 245.482,60.944 C257.095,60.944 266.624,51.514 266.624,38.611 C266.624,28.288 257.096,18.859 245.482,18.859 C233.868,18.859 224.34,28.289 224.34,38.611 Z" style="stroke:none;fill-rule:nonzero;fill:#ffffff;fill-opacity:1;"/>
        </g>
        <g id="Shape5">
            <desc shapeID="5" type="0" basicInfo-basicType="0" basicInfo-roundedRectRadius="12" basicInfo-polygonSides="6" basicInfo-starPoints="5" bounding="rect(-37.3705,-37.4205,74.741,74.841)" text="" font-familyName="" font-pixelSize="20" font-bold="0" font-underline="0" font-alignment="1" strokeStyle="0" markerStart="0" markerEnd="0" shadowEnabled="0" shadowOffsetX="0" shadowOffsetY="2" shadowBlur="4" shadowOpacity="160" blurEnabled="0" blurRadius="4" transform="matrix(1,0,0,1,334.609,39.9015)" pers-center="0,0" pers-size="0,0" pers-start="0,0" pers-end="0,0" locked="0" mesh="" flag=""/>
            <path id="shapePath5" d="M297.239,2.481 L316.694,2.481 L352.328,48.239 L352.526,48.239 L352.526,2.481 L371.98,2.481 L371.98,77.322 L352.526,77.322 L316.892,31.465 L316.694,31.465 L316.694,77.322 L297.239,77.322 L297.239,2.481 Z" style="stroke:none;fill-rule:nonzero;fill:#ffffff;fill-opacity:1;"/>
        </g>
        <g id="Shape6">
            <desc shapeID="6" type="0" basicInfo-basicType="0" basicInfo-roundedRectRadius="12" basicInfo-polygonSides="6" basicInfo-starPoints="5" bounding="rect(-39.1075,-37.4205,78.215,74.841)" text="" font-familyName="" font-pixelSize="20" font-bold="0" font-underline="0" font-alignment="1" strokeStyle="0" markerStart="0" markerEnd="0" shadowEnabled="0" shadowOffsetX="0" shadowOffsetY="2" shadowBlur="4" shadowOpacity="160" blurEnabled="0" blurRadius="4" transform="matrix(1,0,0,1,420.648,39.9015)" pers-center="0,0" pers-size="0,0" pers-start="0,0" pers-end="0,0" locked="0" mesh="" flag=""/>
            <path id="shapePath6" d="M407.347,64.319 L402.186,77.322 L381.54,77.322 L410.325,2.481 L431.566,2.481 L459.755,77.322 L439.01,77.322 L434.147,64.319 L407.347,64.319 M420.945,25.608 L420.746,25.608 L412.707,49.43 L428.886,49.43 L420.945,25.608 Z" style="stroke:none;fill-rule:nonzero;fill:#ffffff;fill-opacity:1;"/>
        </g>
    </g>
</svg>
