<?xml version="1.0"?>
<svg version="1.1" xmlns="http://www.w3.org/2000/svg" xmlns:xlink="http://www.w3.org/1999/xlink" width="293.826" height="79.393">
    <desc iVinci="yes" version="4.5" gridStep="20" showGrid="no" snapToGrid="no" codePlatform="0"/>
    <g id="Layer1" opacity="1">
        <g id="Shape1">
            <desc shapeID="1" type="0" basicInfo-basicType="0" basicInfo-roundedRectRadius="12" basicInfo-polygonSides="6" basicInfo-starPoints="5" bounding="rect(-13.7946,-15.3165,27.5892,30.633)" text="" font-familyName="" font-pixelSize="20" font-bold="0" font-underline="0" font-alignment="1" strokeStyle="0" markerStart="0" markerEnd="0" shadowEnabled="0" shadowOffsetX="0" shadowOffsetY="2" shadowBlur="4" shadowOpacity="160" blurEnabled="0" blurRadius="4" transform="matrix(1,0,0,1,25.6836,20.1955)" pers-center="0,0" pers-size="0,0" pers-start="0,0" pers-end="0,0" locked="0" mesh="" flag=""/>
            <path id="shapePath1" d="M33.419,17.06 C41.077,14.471 41.661,4.879 34.112,4.879 C32.033,4.879 29.553,6.338 27.84,9.328 L17.628,26.979 C17.154,27.818 16.68,28.511 16.17,29.13 C13.544,25.52 14.31,20.123 17.993,17.752 L16.461,15.819 C8.511,20.888 10.845,35.512 24.12,35.512 C35.462,35.513 40.713,21.91 33.419,17.06 M24.047,32.595 C21.786,32.595 19.999,32.084 18.577,31.282 C19.234,30.516 19.89,29.568 20.473,28.583 L26.855,17.533 L27.876,17.642 C36.774,19.503 33.237,32.595 24.047,32.595 M28.131,15.309 L31.194,10.058 C33.965,5.281 37.503,8.089 35.607,11.662 C34.149,14.397 31.997,15.236 28.131,15.309 Z" style="stroke:none;fill-rule:nonzero;fill:#ffffff;fill-opacity:1;"/>
        </g>
        <g id="Shape2">
            <desc shapeID="2" type="0" basicInfo-basicType="0" basicInfo-roundedRectRadius="12" basicInfo-polygonSides="6" basicInfo-starPoints="5" bounding="rect(-47.6177,-9.7195,95.2353,19.439)" text="" font-familyName="" font-pixelSize="20" font-bold="0" font-underline="0" font-alignment="1" strokeStyle="0" markerStart="0" markerEnd="0" shadowEnabled="0" shadowOffsetX="0" shadowOffsetY="2" shadowBlur="4" shadowOpacity="160" blurEnabled="0" blurRadius="4" transform="matrix(1,0,0,1,84.5533,23.6775)" pers-center="0,0" pers-size="0,0" pers-start="0,0" pers-end="0,0" locked="0" mesh="" flag=""/>
            <path id="shapePath2" d="M65.499,29.321 C64.87,31.569 66.072,33.397 68.645,33.397 C70.177,33.397 72.073,32.412 73.896,30.917 C74.079,32.376 75.246,33.397 77.178,33.397 C79.198,33.397 81.413,32.002 83.572,30.039 C83.152,32.087 84.113,33.397 85.982,33.397 C88.061,33.397 90.395,31.501 92.218,29.75 C91.853,31.792 93.057,33.397 95.464,33.397 C98.6,33.397 102.211,30.042 105.347,26.395 C105.322,26.345 105.278,26.293 105.246,26.243 C107.343,23.806 109.192,21.217 110.514,19.466 C109.018,23.405 109.821,30.48 106.21,30.48 C104.934,30.48 104.423,29.094 104.423,29.094 L102.052,30.334 C102.052,30.334 102.745,33.397 106.209,33.397 C106.574,33.397 106.902,33.36 107.267,33.324 C107.304,33.324 107.34,33.288 107.376,33.288 C110.162,32.92 112.926,31.224 115.319,29.064 C115.377,31.559 117.314,33.397 120.464,33.397 C124.767,33.397 129.034,30.042 132.171,26.395 C131.916,25.884 131.259,25.301 130.749,25.082 L130.494,25.374 C127.759,28.546 124.258,31.063 121.596,31.063 C119.262,31.063 117.876,29.604 119.627,26.541 L119.992,25.884 C122.435,26.905 127.031,26.431 129.875,21.508 L130.422,20.56 C132.464,17.059 130.495,14.433 127.395,14.433 C124.332,14.433 121.888,16.038 120.284,18.809 L116.601,25.127 C116.566,25.115 116.53,25.09 116.496,25.081 L116.241,25.373 C114.855,27.014 113.178,28.473 111.683,29.494 C112.886,25.884 112.631,20.341 114.965,15.49 L112.121,13.958 C110.553,16.11 107.125,21.07 103.697,25.081 C103.729,25.127 103.771,25.172 103.807,25.219 L103.672,25.373 C100.937,28.545 98.275,31.062 96.597,31.062 C95.759,31.062 95.285,30.479 96.159,28.983 L104.255,14.796 L100.462,14.796 L93.715,26.575 C90.834,29.201 88.61,30.659 87.88,30.331 C86.932,29.93 87.88,28.508 88.354,27.706 L95.757,14.796 L91.964,14.796 L85.928,25.242 C85.83,25.182 85.732,25.119 85.64,25.08 L85.385,25.372 C82.65,28.544 79.988,31.061 78.31,31.061 C77.472,31.061 76.998,30.478 77.872,28.982 L83.999,18.26 L81.847,18.26 C81.993,16.655 80.352,14.43 77.872,14.43 C75.83,14.43 72.985,16.035 71.381,18.806 L67.535,25.443 C67.34,25.291 67.141,25.157 66.958,25.078 L66.703,25.37 C63.968,28.542 60.467,31.059 57.805,31.059 C55.471,31.059 54.085,29.6 55.835,26.537 L59.737,19.754 C61.925,15.998 65.791,16.618 63.529,20.556 L62.982,21.504 L66.082,21.504 L66.629,20.556 C68.671,17.055 66.702,14.429 63.602,14.429 C60.539,14.429 58.095,16.034 56.491,18.805 L52.721,25.272 C52.603,25.195 52.485,25.125 52.374,25.077 L52.119,25.369 C49.384,28.541 45.883,31.058 43.221,31.058 C40.887,31.058 39.501,29.599 41.251,26.536 L41.616,25.879 C44.059,26.9 48.655,26.426 51.499,21.503 L52.046,20.555 C54.088,17.054 52.119,14.428 49.019,14.428 C45.956,14.428 43.512,16.033 41.908,18.804 L37.933,25.623 C35.562,29.671 37.605,33.391 42.09,33.391 C45.431,33.391 48.747,31.367 51.532,28.756 C51.434,31.403 53.397,33.391 56.673,33.391 C59.77,33.397 62.847,31.656 65.499,29.321 M123.528,19.758 C125.716,16.002 129.582,16.622 127.32,20.56 L126.773,21.508 C124.95,24.608 122.506,24.535 121.084,24.024 L123.528,19.758 M69.337,28.985 L74.625,19.758 C76.667,16.22 80.715,17.132 78.855,20.56 L75.901,25.739 C73.604,29.349 71.342,31.063 69.775,31.063 C68.936,31.063 68.462,30.48 69.337,28.985 M45.153,19.758 C47.341,16.002 51.207,16.622 48.945,20.56 L48.398,21.508 C46.575,24.608 44.131,24.535 42.709,24.024 L45.153,19.758 Z" style="stroke:none;fill-rule:nonzero;fill:#ffffff;fill-opacity:1;"/>
        </g>
        <g id="Shape3">
            <desc shapeID="3" type="0" basicInfo-basicType="0" basicInfo-roundedRectRadius="12" basicInfo-polygonSides="6" basicInfo-starPoints="5" bounding="rect(-22.9857,-13.312,45.9714,26.624)" text="" font-familyName="" font-pixelSize="20" font-bold="0" font-underline="0" font-alignment="1" strokeStyle="0" markerStart="0" markerEnd="0" shadowEnabled="0" shadowOffsetX="0" shadowOffsetY="2" shadowBlur="4" shadowOpacity="160" blurEnabled="0" blurRadius="4" transform="matrix(1,0,0,1,162.457,20.085)" pers-center="0,0" pers-size="0,0" pers-start="0,0" pers-end="0,0" locked="0" mesh="" flag=""/>
            <path id="shapePath3" d="M173.737,33.397 C178.041,33.397 182.307,30.042 185.443,26.395 C185.188,25.884 184.532,25.301 184.021,25.082 L183.766,25.374 C181.031,28.546 177.53,31.063 174.868,31.063 C172.534,31.063 171.148,29.604 172.898,26.541 L173.263,25.884 C175.706,26.905 180.301,26.431 183.146,21.508 L183.693,20.56 C185.735,17.059 183.766,14.433 180.666,14.433 C177.604,14.433 175.16,16.038 173.555,18.809 L169.862,25.145 C169.825,25.126 169.785,25.097 169.749,25.081 L169.493,25.373 C166.759,28.545 164.097,31.062 162.419,31.062 C161.58,31.062 161.106,30.479 161.981,28.983 L167.451,19.392 C169.093,16.511 167.524,14.432 165.409,14.432 C163.767,14.432 162.017,15.344 160.121,17.313 L166.175,6.773 L162.382,6.773 L151.685,25.332 C151.537,25.228 151.388,25.14 151.251,25.081 L150.995,25.373 C148.26,28.545 145.598,31.062 143.92,31.062 C143.082,31.062 142.608,30.479 143.482,28.983 L151.615,14.796 L154.715,14.796 L155.81,12.973 L152.673,12.973 L156.247,6.773 L152.454,6.773 L148.88,12.973 L145.452,12.973 L144.358,14.796 L147.822,14.796 L140.199,28 C138.595,30.808 139.725,33.397 142.788,33.397 C144.673,33.397 146.729,32.181 148.75,30.422 L147.246,33.032 L151.076,33.032 L156.838,23.003 C162.673,15.673 165.262,16.621 163.621,19.429 L158.698,28 C157.094,30.808 158.223,33.397 161.287,33.397 C163.592,33.397 166.151,31.584 168.591,29.176 C168.703,31.615 170.633,33.397 173.737,33.397 M176.8,19.758 C178.988,16.002 182.854,16.622 180.593,20.56 L180.046,21.508 C178.222,24.608 175.778,24.535 174.357,24.024 L176.8,19.758 Z" style="stroke:none;fill-rule:nonzero;fill:#ffffff;fill-opacity:1;"/>
        </g>
        <g id="Shape4">
            <desc shapeID="4" type="0" basicInfo-basicType="0" basicInfo-roundedRectRadius="12" basicInfo-polygonSides="6" basicInfo-starPoints="5" bounding="rect(-48.937,-19.2568,97.874,38.5136)" text="" font-familyName="" font-pixelSize="20" font-bold="0" font-underline="0" font-alignment="1" strokeStyle="0" markerStart="0" markerEnd="0" shadowEnabled="0" shadowOffsetX="0" shadowOffsetY="2" shadowBlur="4" shadowOpacity="160" blurEnabled="0" blurRadius="4" transform="matrix(1,0,0,1,244.888,24.1368)" pers-center="0,0" pers-size="0,0" pers-start="0,0" pers-end="0,0" locked="0" mesh="" flag=""/>
            <path id="shapePath4" d="M288.756,25.083 L288.5,25.375 C285.766,28.547 283.103,31.064 281.426,31.064 C280.587,31.064 280.113,30.481 280.988,28.985 L293.825,6.776 L290.032,6.776 L284.452,16.404 C283.796,15.346 282.556,14.434 280.988,14.434 C278.945,14.434 276.1,16.039 274.496,18.81 L270.785,25.216 C270.705,25.169 270.623,25.115 270.548,25.083 L270.292,25.375 C267.558,28.547 264.896,31.064 263.218,31.064 C262.379,31.064 261.905,30.481 262.78,28.985 L268.25,19.394 C269.892,16.513 268.323,14.434 266.208,14.434 C264.566,14.434 262.853,15.309 260.956,17.279 L262.379,14.799 L258.586,14.799 L252.524,25.286 C252.401,25.205 252.278,25.133 252.164,25.083 L251.908,25.375 C249.174,28.547 246.511,31.064 244.834,31.064 C243.995,31.064 243.521,30.481 244.396,28.985 L250.522,18.263 L248.371,18.263 C248.517,16.658 246.876,14.433 244.396,14.433 C242.353,14.433 239.508,16.038 237.904,18.809 L234.237,25.138 L234.031,25.373 C231.297,28.545 228.634,31.062 226.957,31.062 C226.118,31.062 225.644,30.479 226.519,28.983 L230.311,22.346 C231.624,20.048 231.004,18.699 229.764,17.204 L227.649,14.651 C227.102,13.958 227.102,13.193 227.868,12.463 L225.899,10.312 C223.747,12.245 223.565,14.396 224.914,16.147 L225.243,16.585 C223.565,18.956 221.304,22.165 218.824,25.082 C218.898,25.19 218.987,25.297 219.082,25.404 C215.957,28.996 213.301,31.322 210.319,32.595 L215.132,24.353 L211.34,24.353 L210.939,25.01 C208.933,28.547 206.635,31.064 203.681,31.064 C201.092,31.064 200.619,28.475 202.879,24.609 L203.937,22.749 C204.629,22.858 205.323,22.932 206.088,22.932 C219.581,22.932 226.109,4.88 214.221,4.88 C212.142,4.88 209.662,6.339 207.949,9.329 L202.041,19.504 C199.816,18.337 198.649,16.222 198.649,14.107 C198.649,12.357 199.452,10.606 201.092,9.33 L199.852,7.105 C197.154,9.038 195.951,11.627 195.951,14.18 C195.951,17.207 197.665,20.124 200.728,21.729 L199.597,23.698 C196.935,28.293 197.409,33.399 202.77,33.399 C204.374,33.399 205.724,32.925 206.891,32.195 L205.906,33.909 C200.764,35.477 197.592,37.555 197.592,40.4 C197.592,44.047 203.172,44.813 205.906,40.145 L208.824,35.149 C212.762,33.909 216.628,31.211 220.786,26.397 C220.727,26.28 220.643,26.159 220.55,26.04 C222.234,24.061 223.664,22.152 226.52,18.265 L227.03,18.885 C227.505,19.505 227.687,20.271 227.249,21.037 L223.238,28 C221.633,30.808 222.763,33.397 225.827,33.397 C227.734,33.397 229.816,32.153 231.86,30.361 C231.816,32.106 233.009,33.397 235.171,33.397 C236.702,33.397 238.599,32.412 240.422,30.917 C240.605,32.376 241.772,33.397 243.704,33.397 C245.52,33.397 247.496,32.268 249.446,30.612 L248.048,33.032 L251.877,33.032 L257.675,22.93 C263.474,15.673 266.063,16.621 264.422,19.429 L259.499,28 C257.895,30.808 259.024,33.397 262.088,33.397 C264.104,33.397 266.314,32.009 268.469,30.051 C268.267,31.952 269.475,33.397 271.763,33.397 C273.294,33.397 275.191,32.412 277.014,30.917 C277.197,32.376 278.364,33.397 280.296,33.397 C283.433,33.397 287.043,30.042 290.179,26.395 C289.923,25.885 289.267,25.301 288.756,25.083 M210.793,10.933 C211.924,9 213.164,8.162 214.222,8.162 C220.24,8.162 216.009,20.415 206.089,20.415 L205.323,20.415 L210.793,10.933 M202.734,39.524 C201.932,40.946 200.656,40.728 200.656,39.707 C200.656,38.722 201.531,37.592 204.449,36.461 L202.734,39.524 M242.427,25.739 C240.129,29.349 237.868,31.063 236.3,31.063 C235.461,31.063 234.988,30.48 235.862,28.984 L241.15,19.757 C243.192,16.219 247.24,17.131 245.38,20.559 L242.427,25.739 M279.128,25.52 C276.83,29.276 274.496,31.063 272.892,31.063 C272.053,31.063 271.58,30.48 272.454,28.984 L277.742,19.757 C279.784,16.219 283.832,17.131 281.972,20.559 L282.008,20.559 L279.128,25.52 Z" style="stroke:none;fill-rule:nonzero;fill:#ffffff;fill-opacity:1;"/>
        </g>
        <g id="Shape5">
            <desc shapeID="5" type="0" basicInfo-basicType="0" basicInfo-roundedRectRadius="12" basicInfo-polygonSides="6" basicInfo-starPoints="5" bounding="rect(-55.327,-19.2558,110.654,38.5116)" text="" font-familyName="" font-pixelSize="20" font-bold="0" font-underline="0" font-alignment="1" strokeStyle="0" markerStart="0" markerEnd="0" shadowEnabled="0" shadowOffsetX="0" shadowOffsetY="2" shadowBlur="4" shadowOpacity="160" blurEnabled="0" blurRadius="4" transform="matrix(1,0,0,1,108.147,60.1368)" pers-center="0,0" pers-size="0,0" pers-start="0,0" pers-end="0,0" locked="0" mesh="" flag=""/>
            <path id="shapePath5" d="M162.051,61.082 L161.796,61.375 C159.061,64.547 156.399,67.063 154.721,67.063 C153.882,67.063 153.409,66.48 154.283,64.984 L159.754,55.393 C161.395,52.512 159.826,50.433 157.711,50.433 C156.07,50.433 154.357,51.308 152.46,53.278 L153.882,50.799 L150.089,50.799 L143.977,61.373 C143.812,61.254 143.646,61.148 143.493,61.082 L143.238,61.375 C141.524,63.234 139.408,64.146 137.512,64.183 L141.086,58.02 C143.383,54.044 141.268,50.289 137.694,50.289 C134.777,50.289 132.516,51.456 130.327,55.249 L128.467,58.494 L126.841,61.276 C126.724,61.2 126.607,61.13 126.498,61.083 L126.243,61.376 C123.107,64.985 120.445,67.319 117.454,68.597 L127.848,50.8 L124.056,50.8 L117.346,62.47 C114.429,65.168 112.168,66.663 111.438,66.335 C110.49,65.935 111.438,64.512 111.912,63.71 L119.315,50.8 L115.522,50.8 L109.471,61.27 C109.358,61.198 109.245,61.128 109.14,61.083 L108.885,61.376 C106.15,64.548 103.488,67.064 101.81,67.064 C100.972,67.064 100.498,66.481 101.372,64.985 L106.842,55.394 C108.483,52.513 106.915,50.434 104.8,50.434 C103.159,50.434 101.445,51.309 99.549,53.279 L100.971,50.8 L97.178,50.8 L91.116,61.286 C90.993,61.205 90.87,61.133 90.756,61.083 L90.501,61.376 C87.766,64.548 85.104,67.064 83.426,67.064 C82.588,67.064 82.114,66.481 82.988,64.985 L89.115,54.264 L86.963,54.264 C87.109,52.659 85.468,50.434 82.988,50.434 C80.946,50.434 78.101,52.039 76.497,54.811 L72.579,61.573 C72.32,61.338 72.021,61.156 71.748,61.083 L71.493,61.376 C68.758,64.548 65.403,67.064 61.646,67.064 C59.057,67.064 57.489,64.475 59.75,60.609 L60.808,58.749 C61.501,58.858 62.194,58.933 62.959,58.933 C67.007,58.933 71.602,56.853 74.593,51.638 C75.65,49.779 76.124,48.029 76.124,46.533 C76.124,43.105 73.899,40.881 71.092,40.881 C69.013,40.881 66.533,42.34 64.819,45.33 L58.911,55.505 C56.686,54.338 55.519,52.223 55.519,50.108 C55.519,48.358 56.321,46.607 57.962,45.331 L56.722,43.106 C54.023,45.04 52.82,47.627 52.82,50.181 C52.82,53.207 54.534,56.125 57.597,57.73 L56.467,59.7 C53.805,64.295 55.373,69.4 60.734,69.4 C64.975,69.4 68.087,67.511 70.702,65.028 C69.876,67.411 71.076,69.4 73.761,69.4 C75.293,69.4 77.189,68.415 79.012,66.921 C79.195,68.38 80.362,69.4 82.294,69.4 C84.11,69.4 86.086,68.271 88.036,66.616 L86.637,69.036 L90.467,69.036 L96.265,58.934 C102.063,51.676 104.653,52.624 103.012,55.432 L98.09,64 C96.486,66.809 97.616,69.397 100.679,69.397 C102.72,69.397 104.961,67.972 107.143,65.974 C106.688,68.06 107.652,69.397 109.541,69.397 C111.365,69.397 113.443,67.865 115.157,66.334 L113.078,69.908 C107.936,71.439 104.727,73.554 104.727,76.399 C104.727,80.046 110.307,80.812 113.041,76.144 L115.958,71.148 C119.129,70.15 122.255,68.183 125.521,64.952 C124.997,70.249 132.054,71.457 136.307,66.078 L137.146,66.078 C138.531,66.078 140.406,65.555 142.098,64.623 L139.549,69.033 L143.379,69.033 L149.177,58.931 C154.975,51.673 157.565,52.621 155.924,55.429 L151.001,64 C149.397,66.809 150.526,69.397 153.591,69.397 C156.727,69.397 160.337,66.043 163.474,62.395 C163.218,61.885 162.562,61.301 162.051,61.082 M67.664,46.933 C68.794,45 70.035,44.162 71.092,44.162 C72.514,44.162 73.171,45.11 73.171,46.496 C73.171,50.034 68.868,56.415 62.96,56.415 L62.194,56.415 L67.664,46.933 M81.019,61.739 C78.722,65.349 76.46,67.063 74.892,67.063 C74.054,67.063 73.58,66.48 74.454,64.984 L79.742,55.757 C81.784,52.22 85.832,53.132 83.972,56.56 L81.019,61.739 M109.87,75.523 C109.067,76.946 107.791,76.727 107.791,75.707 C107.791,74.722 108.703,73.592 111.62,72.461 L109.87,75.523 M135.397,61.338 L135.214,61.338 C133.974,61.338 132.989,62.359 132.989,63.6 C132.989,64.074 133.135,64.511 133.354,64.875 L133.318,64.948 C131.531,68.011 127.191,67.427 129.452,63.489 L132.333,58.493 L134.156,55.393 C136.819,50.871 140.465,52.658 138.168,56.597 L135.397,61.338 Z" style="stroke:none;fill-rule:nonzero;fill:#ffffff;fill-opacity:1;"/>
        </g>
        <g id="Shape6">
            <desc shapeID="6" type="0" basicInfo-basicType="0" basicInfo-roundedRectRadius="12" basicInfo-polygonSides="6" basicInfo-starPoints="5" bounding="rect(-40.231,-13.3105,80.462,26.621)" text="" font-familyName="" font-pixelSize="20" font-bold="0" font-underline="0" font-alignment="1" strokeStyle="0" markerStart="0" markerEnd="0" shadowEnabled="0" shadowOffsetX="0" shadowOffsetY="2" shadowBlur="4" shadowOpacity="160" blurEnabled="0" blurRadius="4" transform="matrix(1,0,0,1,209.727,56.0875)" pers-center="0,0" pers-size="0,0" pers-start="0,0" pers-end="0,0" locked="0" mesh="" flag=""/>
            <path id="shapePath6" d="M249.958,62.396 C249.739,61.813 249.083,61.229 248.536,61.083 L248.28,61.376 C246.894,63.017 245.217,64.476 243.721,65.496 C244.925,61.886 244.669,56.343 247.003,51.492 L244.158,49.96 C242.591,52.112 239.162,57.072 235.734,61.083 C235.74,61.093 235.749,61.101 235.755,61.109 C235.74,61.102 235.724,61.089 235.709,61.083 L235.454,61.376 C232.719,64.548 230.057,67.064 228.379,67.064 C227.54,67.064 226.738,66.225 226.738,64.511 L226.738,62.943 C229.4,63.271 232.208,61.52 233.995,58.421 L235.016,56.671 C238.553,50.617 232.791,48.611 228.925,52.15 L234.322,42.777 L230.529,42.777 L219.713,61.543 C219.483,61.348 219.238,61.179 219.018,61.084 L218.763,61.377 C216.028,64.549 212.527,67.065 209.865,67.065 C207.531,67.065 206.145,65.606 207.895,62.543 L211.797,55.76 C213.985,52.004 217.851,52.624 215.59,56.563 L215.043,57.511 L218.143,57.511 L218.69,56.563 C220.732,53.062 218.763,50.436 215.663,50.436 C212.601,50.436 210.156,52.041 208.552,54.813 L204.82,61.217 C204.741,61.17 204.659,61.116 204.585,61.084 L204.329,61.377 C201.595,64.549 198.933,67.065 197.255,67.065 C196.416,67.065 195.942,66.482 196.817,64.986 L204.913,50.8 L201.12,50.8 L194.374,62.579 C191.492,65.204 189.268,66.663 188.539,66.335 C187.591,65.935 188.539,64.512 189.013,63.71 L196.416,50.8 L192.623,50.8 L185.258,63.544 C184.437,64.29 183.598,64.957 182.808,65.496 C184.011,61.886 183.756,56.343 186.09,51.492 L183.245,49.96 C181.677,52.112 172.925,63.71 169.496,67.721 C169.824,68.195 170.372,68.669 170.919,69.034 C173.07,66.554 180.291,57.255 181.641,55.468 C180.146,59.406 180.948,66.482 177.337,66.482 C176.061,66.482 175.55,65.095 175.55,65.095 L173.18,66.335 C173.18,66.335 173.873,69.398 177.337,69.398 C177.702,69.398 178.03,69.362 178.395,69.325 C178.431,69.325 178.468,69.289 178.504,69.289 C180.43,69.034 182.345,68.147 184.135,66.91 C184.122,68.452 185.054,69.398 186.643,69.398 C188.721,69.398 191.055,67.502 192.878,65.751 C192.514,67.794 193.717,69.398 196.124,69.398 C198.479,69.398 201.103,67.505 203.591,65.018 C203.625,67.537 205.566,69.398 208.736,69.398 C211.814,69.398 214.872,67.678 217.512,65.366 L215.398,69.034 L219.227,69.034 L223.567,61.485 L223.567,64.511 C223.567,67.756 224.187,69.398 227.25,69.398 C230.387,69.398 233.997,66.044 237.134,62.396 C237.128,62.385 237.117,62.374 237.112,62.362 C237.128,62.374 237.143,62.385 237.159,62.396 C239.311,59.917 241.208,57.254 242.556,55.467 C241.061,59.405 241.864,66.481 238.253,66.481 C236.977,66.481 236.466,65.094 236.466,65.094 L234.096,66.334 C234.096,66.334 234.788,69.397 238.253,69.397 C238.617,69.397 238.945,69.361 239.311,69.324 C239.347,69.324 239.383,69.288 239.42,69.288 C243.285,68.777 247.114,65.714 249.958,62.396 M224.77,59.405 L225.864,57.509 C230.241,51.418 233.231,53.096 231.882,55.394 L230.059,58.53 C228.927,60.499 225.609,61.885 224.77,59.405 Z" style="stroke:none;fill-rule:nonzero;fill:#ffffff;fill-opacity:1;"/>
        </g>
        <g id="Shape7">
            <desc shapeID="7" type="0" basicInfo-basicType="0" basicInfo-roundedRectRadius="12" basicInfo-polygonSides="6" basicInfo-starPoints="5" bounding="rect(-2.2065,-2.2065,4.41299,4.413)" text="" font-familyName="" font-pixelSize="20" font-bold="0" font-underline="0" font-alignment="1" strokeStyle="0" markerStart="0" markerEnd="0" shadowEnabled="0" shadowOffsetX="0" shadowOffsetY="2" shadowBlur="4" shadowOpacity="160" blurEnabled="0" blurRadius="4" transform="matrix(1,0,0,1,249.829,67.1905)" pers-center="0,0" pers-size="0,0" pers-start="0,0" pers-end="0,0" locked="0" mesh="" flag=""/>
            <path id="shapePath7" d="M249.811,64.984 C248.572,64.984 247.623,65.968 247.623,67.209 C247.623,68.45 248.571,69.397 249.811,69.397 C251.051,69.397 252.036,68.449 252.036,67.209 C252.036,65.969 251.051,64.984 249.811,64.984 Z" style="stroke:none;fill-rule:nonzero;fill:#ffffff;fill-opacity:1;"/>
        </g>
        <g id="Shape8">
            <desc shapeID="8" type="0" basicInfo-basicType="0" basicInfo-roundedRectRadius="12" basicInfo-polygonSides="6" basicInfo-starPoints="5" bounding="rect(-6.91,-4.685,13.82,9.37)" text="" font-familyName="" font-pixelSize="20" font-bold="0" font-underline="0" font-alignment="1" strokeStyle="0" markerStart="0" markerEnd="0" shadowEnabled="0" shadowOffsetX="0" shadowOffsetY="2" shadowBlur="4" shadowOpacity="160" blurEnabled="0" blurRadius="4" transform="matrix(1,0,0,1,6.91,4.685)" pers-center="0,0" pers-size="0,0" pers-start="0,0" pers-end="0,0" locked="0" mesh="" flag=""/>
            <path id="shapePath8" d="M5.75,6.9 C5.75,7.193 5.693,7.487 5.581,7.779 C5.468,8.073 5.299,8.338 5.074,8.575 C4.848,8.812 4.572,9.003 4.245,9.15 C3.918,9.297 3.551,9.37 3.145,9.37 C2.694,9.37 2.26,9.286 1.843,9.117 C1.426,8.947 1.071,8.705 0.778,8.389 C0.529,8.096 0.338,7.746 0.203,7.34 C0.0669999,6.934 0,6.506 0,6.055 C0,5.199 0.152,4.409 0.457,3.687 C0.761,2.965 1.195,2.323 1.759,1.759 C2.007,1.511 2.288,1.28 2.604,1.065 C2.92,0.852 3.219,0.671 3.501,0.524 C3.782,0.378 4.025,0.26 4.228,0.169 C4.431,0.079 4.555,0.0229998 4.6,0 L5.953,1.996 C5.704,2.086 5.429,2.205 5.124,2.351 C4.82,2.498 4.532,2.678 4.262,2.892 C3.991,3.106 3.766,3.36 3.585,3.653 C3.405,3.946 3.303,4.285 3.281,4.668 C3.935,4.668 4.51,4.86 5.006,5.243 C5.502,5.626 5.75,6.179 5.75,6.9 M13.616,6.9 C13.616,7.193 13.559,7.487 13.447,7.779 C13.334,8.072 13.165,8.337 12.94,8.574 C12.714,8.811 12.438,9.003 12.111,9.149 C11.783,9.296 11.417,9.369 11.011,9.369 C10.56,9.369 10.126,9.285 9.709,9.116 C9.292,8.947 8.937,8.705 8.644,8.389 C8.396,8.096 8.204,7.746 8.069,7.34 C7.934,6.934 7.866,6.506 7.866,6.055 C7.866,5.199 8.018,4.409 8.323,3.687 C8.627,2.965 9.061,2.323 9.625,1.759 C9.873,1.511 10.154,1.28 10.471,1.066 C10.786,0.852 11.085,0.672 11.367,0.525 C11.649,0.379 11.891,0.26 12.095,0.17 C12.298,0.0799999 12.422,0.0240002 12.467,0.000999928 L13.82,1.997 C13.571,2.087 13.296,2.206 12.991,2.352 C12.686,2.499 12.399,2.679 12.128,2.893 C11.857,3.107 11.632,3.361 11.452,3.654 C11.271,3.947 11.17,4.285 11.147,4.669 C11.801,4.669 12.376,4.861 12.872,5.244 C13.368,5.626 13.616,6.179 13.616,6.9 Z" style="stroke:none;fill-rule:nonzero;fill:#ffffff;fill-opacity:1;"/>
        </g>
        <g id="Shape9">
            <desc shapeID="9" type="0" basicInfo-basicType="0" basicInfo-roundedRectRadius="12" basicInfo-polygonSides="6" basicInfo-starPoints="5" bounding="rect(-6.91049,-4.685,13.821,9.37)" text="" font-familyName="" font-pixelSize="20" font-bold="0" font-underline="0" font-alignment="1" strokeStyle="0" markerStart="0" markerEnd="0" shadowEnabled="0" shadowOffsetX="0" shadowOffsetY="2" shadowBlur="4" shadowOpacity="160" blurEnabled="0" blurRadius="4" transform="matrix(1,0,0,1,277.615,68.057)" pers-center="0,0" pers-size="0,0" pers-start="0,0" pers-end="0,0" locked="0" mesh="" flag=""/>
            <path id="shapePath9" d="M278.776,65.842 C278.776,65.548 278.833,65.254 278.944,64.962 C279.057,64.668 279.227,64.404 279.452,64.167 C279.678,63.93 279.954,63.738 280.28,63.592 C280.608,63.446 280.974,63.372 281.38,63.372 C281.831,63.372 282.266,63.457 282.683,63.625 C283.101,63.795 283.455,64.037 283.748,64.354 C283.997,64.647 284.188,64.997 284.323,65.402 C284.458,65.808 284.526,66.236 284.526,66.688 C284.526,67.543 284.374,68.333 284.069,69.055 C283.764,69.777 283.331,70.419 282.766,70.983 C282.518,71.231 282.237,71.462 281.92,71.676 C281.606,71.891 281.307,72.071 281.024,72.217 C280.743,72.363 280.501,72.483 280.297,72.572 C280.093,72.661 279.971,72.718 279.925,72.742 L278.572,70.746 C278.82,70.656 279.095,70.537 279.4,70.391 C279.705,70.245 279.992,70.064 280.263,69.85 C280.533,69.635 280.759,69.381 280.939,69.088 C281.12,68.795 281.221,68.457 281.244,68.074 C280.59,68.074 280.015,67.882 279.519,67.498 C279.024,67.115 278.776,66.562 278.776,65.842 M270.909,65.842 C270.909,65.548 270.966,65.254 271.079,64.962 C271.192,64.668 271.36,64.404 271.586,64.167 C271.812,63.93 272.089,63.738 272.415,63.592 C272.742,63.446 273.108,63.372 273.515,63.372 C273.966,63.372 274.4,63.457 274.817,63.625 C275.234,63.795 275.589,64.037 275.882,64.354 C276.13,64.647 276.321,64.997 276.457,65.402 C276.593,65.808 276.659,66.236 276.659,66.688 C276.659,67.543 276.508,68.333 276.203,69.055 C275.899,69.777 275.465,70.419 274.901,70.983 C274.653,71.231 274.372,71.462 274.055,71.676 C273.738,71.89 273.441,72.071 273.159,72.217 C272.878,72.363 272.635,72.483 272.431,72.572 C272.227,72.661 272.104,72.718 272.059,72.742 L270.705,70.746 C270.954,70.656 271.23,70.537 271.534,70.391 C271.839,70.245 272.127,70.064 272.396,69.85 C272.667,69.635 272.892,69.381 273.073,69.088 C273.254,68.795 273.355,68.457 273.378,68.074 C272.725,68.074 272.149,67.882 271.652,67.498 C271.158,67.115 270.909,66.562 270.909,65.842 Z" style="stroke:none;fill-rule:nonzero;fill:#ffffff;fill-opacity:1;"/>
        </g>
    </g>
</svg>
